<svg xmlns="http://www.w3.org/2000/svg" viewBox="0 0 1000 182.54387"><title>Logo</title><path d="M155.79991,88.90588a14.40505,14.40505,0,0,1-2.4105-20.141l19.03906-24.366A10.66138,10.66138,0,0,0,155.626,31.27129L133.5541,59.52449a30.72392,30.72392,0,0,0,4.68222,42.71813l98.576,77.01774a15.22278,15.22278,0,0,0,21.456-2.67592l3.69538-4.73274Z" fill="#e94057"/><path d="M92.28457,133.991A10.66139,10.66139,0,1,0,79.157,150.79355l36.44917,28.46682a15.222,15.222,0,0,0,21.45532-2.67592L139.117,173.952a2.66571,2.66571,0,0,0-.4592-3.74079Z" fill="#e94057"/><path d="M66.97717,119.41865a10.661,10.661,0,0,0-19.06209-6.5638L.56526,173.4602a2.66463,2.66463,0,0,0,.4592,3.74079l2.6772,2.09264a15.22232,15.22232,0,0,0,21.50073-2.73476l39.51522-50.57641A10.61175,10.61175,0,0,0,66.97717,119.41865Z" fill="#2e2c76"/><path d="M200.81151,65.00936a10.66172,10.66172,0,0,0-19.06273-6.56444L168.62117,75.24808a2.66521,2.66521,0,0,0,.4592,3.74079l2.67784,2.09264a15.22214,15.22214,0,0,0,21.50009-2.73412l5.293-6.77486A10.60268,10.60268,0,0,0,200.81151,65.00936Z" fill="#2e2c76"/><path d="M199.27145,170.22467,103.42058,95.33922a14.40168,14.40168,0,0,1-2.40986-20.14039c.00767-.00959,45.95431-58.88174,45.38574-58.15392A10.61687,10.61687,0,0,0,129.70331,3.92626L81.17413,65.95847A30.72577,30.72577,0,0,0,85.857,108.676l90.3628,70.59784a15.22375,15.22375,0,0,0,21.456-2.67656l2.05555-2.63179A2.66516,2.66516,0,0,0,199.27145,170.22467Z" fill="#2e2c76"/><path d="M366.12461,68.50436H323.78883V45.6203H433.63311V68.50436H391.29734V179.11153H366.12461Z" fill="#2e2c76"/><path d="M508.76484,73.6532,462.42422,179.11153H435.15388L495.03431,45.6203h27.46107l59.88026,133.49123H554.91457Z" fill="#2e2c76"/><path d="M681.53292,45.42958h25.17273v133.682h-15.6376v.19072L620.88977,89.10041v90.01112H595.7172V45.6203h20.405l65.41072,82.76432Z" fill="#2e2c76"/><path d="M828.94139,78.23055c-8.963-8.58186-22.31206-13.34926-33.945-13.34926-28.60524,0-45.95917,21.73972-45.95917,49.20113,0,21.93044,12.77709,44.62378,45.95917,44.62378,10.48858,0,19.64227-2.288,30.13085-10.67914V124.38011H790.99174V101.8775h57.21048V158.134c-13.15837,15.06576-29.74941,24.02839-53.2058,24.02839-50.15457,0-70.55974-32.991-70.55974-68.08,0-37.56837,23.45639-72.27591,70.55974-72.27591A70.50334,70.50334,0,0,1,844.579,62.21118Z" fill="#2e2c76"/><path d="M999.99531,113.12881c-.38145,34.51681-21.54933,69.03362-68.462,69.03362-46.91279,0-68.65268-33.75392-68.65268-68.8429s22.50278-70.36935,68.65268-70.36935C977.49253,42.95018,1000.37676,78.23055,999.99531,113.12881ZM887.6718,113.701c.57217,21.93044,12.39564,45.38667,43.86156,45.38667,31.46575,0,43.28922-23.64695,43.67067-45.57739.38145-22.50328-12.20492-47.67534-43.67067-47.67534C900.06744,65.83491,887.0998,91.19769,887.6718,113.701Z" fill="#2e2c76"/></svg>